<?xml version="1.0" encoding="UTF-8"?>
<svg xmlns="http://www.w3.org/2000/svg" xmlns:xlink="http://www.w3.org/1999/xlink" width="500pt" height="500pt" viewBox="0 0 500 500" version="1.1">
<g id="surface1">
<path style=" stroke:none;fill-rule:nonzero;fill:#000000;fill-opacity:1;" d="M 250 20 C 213.398438 20 181.5625 38.398438 161.5625 65.9375 C 151.445313 62.851563 141.171875 60 130 60 C 69.375 60 20 109.375 20 170 C 20 216.40625 49.21875 255.429688 90 271.5625 L 90 386.875 C 89.414063 388.828125 89.414063 390.859375 90 392.8125 L 90 470 C 90 475.507813 94.492188 480 100 480 L 400 480 C 405.507813 480 410 475.507813 410 470 L 410 391.875 C 410.273438 390.546875 410.273438 389.140625 410 387.8125 L 410 271.5625 C 450.78125 255.429688 480 216.40625 480 170 C 480 109.375 430.625 60 370 60 C 358.828125 60 348.554688 62.851563 338.4375 65.9375 C 318.4375 38.398438 286.601563 20 250 20 Z M 250 40 C 282.070313 40 309.960938 56.679688 325.9375 81.875 C 328.476563 86.015625 333.632813 87.734375 338.125 85.9375 C 348.125 82.109375 358.75 80 370 80 C 419.84375 80 460 120.15625 460 170 C 460 210.390625 433.359375 244.453125 396.875 255.9375 C 392.8125 257.265625 390.039063 261.054688 390 265.3125 L 390 380 L 110 380 L 110 265.3125 C 109.960938 261.054688 107.1875 257.265625 103.125 255.9375 C 66.640625 244.453125 40 210.390625 40 170 C 40 120.15625 80.15625 80 130 80 C 141.25 80 151.875 82.109375 161.875 85.9375 C 166.367188 87.734375 171.523438 86.015625 174.0625 81.875 C 190.039063 56.679688 217.929688 40 250 40 Z M 179.0625 269.6875 C 178.632813 269.765625 178.203125 269.882813 177.8125 270 C 173.164063 271.054688 169.882813 275.234375 170 280 L 170 310 C 169.960938 313.59375 171.835938 316.953125 174.960938 318.789063 C 178.085938 320.585938 181.914063 320.585938 185.039063 318.789063 C 188.164063 316.953125 190.039063 313.59375 190 310 L 190 280 C 190.117188 277.109375 188.945313 274.335938 186.875 272.382813 C 184.765625 270.390625 181.914063 269.414063 179.0625 269.6875 Z M 249.0625 269.6875 C 248.632813 269.765625 248.203125 269.882813 247.8125 270 C 243.164063 271.054688 239.882813 275.234375 240 280 L 240 320 C 239.960938 323.59375 241.835938 326.953125 244.960938 328.789063 C 248.085938 330.585938 251.914063 330.585938 255.039063 328.789063 C 258.164063 326.953125 260.039063 323.59375 260 320 L 260 280 C 260.117188 277.109375 258.945313 274.335938 256.875 272.382813 C 254.765625 270.390625 251.914063 269.414063 249.0625 269.6875 Z M 319.0625 269.6875 C 318.632813 269.765625 318.203125 269.882813 317.8125 270 C 313.164063 271.054688 309.882813 275.234375 310 280 L 310 310 C 309.960938 313.59375 311.835938 316.953125 314.960938 318.789063 C 318.085938 320.585938 321.914063 320.585938 325.039063 318.789063 C 328.164063 316.953125 330.039063 313.59375 330 310 L 330 280 C 330.117188 277.109375 328.945313 274.335938 326.875 272.382813 C 324.765625 270.390625 321.914063 269.414063 319.0625 269.6875 Z M 110 400 L 390 400 L 390 460 L 110 460 Z "/>
</g>
</svg>
